<svg id="Layer_1" data-name="Layer 1" xmlns="http://www.w3.org/2000/svg" viewBox="0 0 292.4 24.86"><defs><style>.cls-1{fill:#e5e5e5;}.cls-1,.cls-2{stroke:#1c1c1b;stroke-miterlimit:10;stroke-width:0.75px;}.cls-2{fill:none;}</style></defs><title>pencil</title><g id="Layer_2" data-name="Layer 2"><g id="Layer_1-2" data-name="Layer 1-2"><rect class="cls-1" x="235.76" y="0.42" width="9.98" height="24.03"/><polygon class="cls-1" points="51.74 18.24 235.76 18.24 235.76 24.45 46.85 24.45 51.74 18.24"/><rect class="cls-1" x="245.74" y="0.42" width="4.73" height="24.03"/><rect class="cls-1" x="250.47" y="0.42" width="20.08" height="24.03"/><rect class="cls-1" x="270.55" y="0.42" width="6.99" height="24.03"/><polygon class="cls-1" points="46.85 0.42 235.76 0.42 235.76 6.5 51.67 6.71 46.85 0.42"/><polygon class="cls-1" points="235.76 6.5 235.76 18.24 51.74 18.24 46.85 12.44 51.74 6.8 51.67 6.71 235.76 6.5"/><path class="cls-1" d="M13.93,8.71v9.84L3.19,16.44a2.7,2.7,0,0,1-.08-5.28Z" transform="translate(-0.64 -0.7)"/><polygon class="cls-1" points="46.85 0.42 51.67 6.71 51.74 6.8 46.85 12.44 51.74 18.24 46.85 24.45 13.29 17.85 13.29 8.01 46.85 0.42"/><line class="cls-2" x1="13.29" y1="7.24" x2="13.29" y2="8.01"/><line class="cls-2" x1="13.29" y1="17.85" x2="13.29" y2="18.75"/><line class="cls-2" x1="51.67" y1="6.71" x2="50.74" y2="6.71"/><path class="cls-1" d="M278.18,1.12h5.29a9.21,9.21,0,0,1,9.19,9.19V16a9.21,9.21,0,0,1-9.19,9.19h-5.29Z" transform="translate(-0.64 -0.7)"/></g></g></svg>